<?xml version="1.0" standalone="no"?>
<!DOCTYPE svg PUBLIC "-//W3C//DTD SVG 20010904//EN"
 "http://www.w3.org/TR/2001/REC-SVG-20010904/DTD/svg10.dtd">
<svg version="1.0" xmlns="http://www.w3.org/2000/svg"
 width="1024.000000pt" height="1536.000000pt" viewBox="0 0 1024.000000 1536.000000"
 preserveAspectRatio="xMidYMid meet">

<g transform="translate(0.000000,1536.000000) scale(0.100000,-0.100000)"
fill="#000000" stroke="none">
<path d="M0 7680 l0 -7680 5120 0 5120 0 0 7680 0 7680 -5120 0 -5120 0 0
-7680z m7663 4145 c76 -38 158 -126 188 -202 31 -81 32 -205 0 -285 -31 -80
-106 -159 -189 -200 -61 -30 -74 -33 -162 -33 -87 0 -101 3 -161 32 -233 115
-295 407 -128 598 41 47 80 73 148 102 48 20 69 23 151 20 81 -3 104 -8 153
-32z m702 -909 c103 -48 165 -143 165 -251 0 -197 -209 -333 -385 -251 -95 44
-165 152 -165 252 0 114 88 231 199 265 54 16 134 10 186 -15z m-2305 -766
c196 -32 369 -192 410 -381 16 -74 8 -209 -17 -279 l-19 -55 -100 -7 c-57 -4
-136 -17 -187 -32 -86 -25 -224 -89 -280 -128 -16 -11 -30 -19 -31 -17 -2 2
-92 135 -201 294 -109 160 -205 298 -213 308 -9 10 -12 21 -6 26 5 5 75 54
156 110 155 108 235 147 326 160 81 12 89 12 162 1z m1795 -100 c124 -39 222
-97 305 -180 84 -84 129 -159 159 -267 20 -72 37 -183 29 -183 -3 0 -117 39
-254 86 -246 85 -250 86 -329 82 -50 -3 -93 -11 -114 -22 -48 -25 -127 -101
-141 -136 -7 -17 -17 -30 -23 -30 -14 0 -450 161 -460 170 -13 11 74 185 128
255 87 115 231 210 365 240 90 20 244 13 335 -15z m-2491 -676 c123 -184 206
-318 200 -323 -5 -5 -256 -183 -559 -396 -302 -213 -574 -405 -603 -427 l-52
-39 -61 32 c-193 103 -297 336 -244 544 45 173 92 223 458 479 589 411 640
446 646 446 3 0 100 -142 215 -316z m2641 -25 c110 -39 220 -78 245 -86 25 -8
60 -30 78 -49 42 -44 42 -92 2 -203 -46 -126 -70 -151 -145 -151 -33 0 -454
143 -516 176 -41 21 -69 70 -69 122 0 24 14 78 30 122 38 96 81 140 138 140
20 0 127 -32 237 -71z m-793 -23 l213 -79 0 -86 c0 -101 20 -155 84 -224 43
-46 87 -69 224 -117 l79 -27 -35 -22 c-64 -39 -121 -117 -151 -204 -5 -15 -13
-17 -58 -11 -324 41 -562 229 -624 491 -24 100 -12 235 31 351 3 8 9 12 14 10
5 -2 105 -39 223 -82z m-690 -187 c83 -17 192 -72 248 -125 83 -78 133 -170
196 -360 30 -93 67 -189 81 -213 41 -71 101 -129 167 -161 165 -81 315 -59
482 73 l70 55 2 56 c3 122 97 216 214 216 114 -1 218 -108 218 -225 0 -36 -39
-123 -66 -147 -37 -33 -108 -58 -165 -58 -50 0 -58 -3 -90 -36 -55 -57 -188
-142 -269 -171 -141 -50 -324 -43 -457 17 -35 16 -63 28 -63 27 1 -1 34 -96
74 -212 65 -186 77 -213 107 -236 19 -15 248 -150 509 -299 337 -193 486 -283
512 -311 76 -82 71 -208 -12 -283 -23 -20 -52 -41 -66 -46 -41 -16 -116 -11
-162 10 -90 41 -1049 595 -1080 624 -19 17 -40 43 -48 59 -8 15 -89 238 -179
495 -178 505 -181 512 -250 512 -24 0 -45 -9 -67 -29 -47 -42 -43 -74 41 -300
l72 -195 -23 -18 c-58 -46 -462 -338 -748 -541 -187 -132 -320 -233 -326 -248
-7 -13 -37 -283 -68 -599 -67 -675 -67 -675 -104 -754 -36 -75 -75 -113 -312
-303 -785 -629 -1038 -836 -1057 -865 -37 -56 -50 -110 -93 -388 -92 -590
-142 -887 -156 -928 -23 -63 -71 -95 -148 -100 -51 -3 -67 0 -96 20 -66 44
-76 82 -84 300 -13 365 -44 814 -76 1091 -25 214 -25 241 4 302 30 63 52 83
321 297 815 646 1098 873 1110 892 13 22 33 259 57 684 9 168 9 215 -1 225
-10 9 -15 9 -24 -4 -7 -9 -107 -193 -222 -409 -173 -322 -220 -404 -268 -456
-81 -88 -143 -117 -263 -122 l-91 -4 -409 176 c-225 96 -587 252 -804 346
-351 152 -400 171 -438 167 -60 -6 -81 -29 -169 -187 -112 -198 -236 -402
-311 -510 -105 -152 -287 -394 -317 -422 -41 -39 -105 -54 -158 -38 -54 16
-112 74 -126 126 -16 61 3 112 130 339 164 293 248 467 327 675 169 443 284
715 315 748 55 59 131 68 230 26 34 -14 217 -94 407 -176 1263 -549 1293 -562
1307 -542 8 11 44 78 80 149 36 72 107 209 158 305 50 96 152 292 225 435 73
143 149 284 168 314 54 85 152 170 393 340 123 86 325 228 449 316 750 531
810 571 919 601 58 16 204 17 273 3z"/>
</g>
</svg>
